<?xml version="1.0" encoding="iso-8859-1"?>
<svg version="1.1" id="Layer_1" xmlns="http://www.w3.org/2000/svg" xmlns:xlink="http://www.w3.org/1999/xlink" x="0px" y="0px"
	 viewBox="0 0 2023.284 490.681" style="enable-background:new 0 0 2023.284 490.681;" xml:space="preserve">
<path style="fill:rgba(255, 193, 7,0.5)" d="M2023.628,82.758c-73.165,39.336-186.102,89.804-331.444,115.494
	c-82.954,14.663-290.819,41.467-527.974-31.498C1008.6,118.877,991.433,74.519,816.228,33.26
	C678.983,0.94,568.388-0.32,524.502,0.136c-212.78,2.211-390.814,65.088-517.91,128.3C4.437,249.184,2.282,369.933,0.128,490.681
	c674.5,0,1349,0,2023.5,0C2023.628,354.707,2023.628,218.732,2023.628,82.758z"/>
<path style="fill:rgba(0, 188, 212, 0.57);" d="M2023.628,89.681c-64.308,38.722-177.5,97.804-326.855,124.705
	C1284.647,288.616,1050.979,36.241,592.128,19.681c-132.947-4.798-336.827,8.372-592,111.852c0,119.716,0,239.432,0,359.148
	c674.5,0,1349,0,2023.5,0C2023.628,357.014,2023.628,223.348,2023.628,89.681z"/>
<path style="fill:rgba(0, 188, 212, 0.77);" d="M2023.628,135.681c-68.128,25.401-182.283,62.139-326.855,78.705
	C1257.613,264.709,1032.29,72.242,584.904,53.525c-132.093-5.526-333.427,2.007-584.776,78.008c0,119.716,0,239.432,0,359.148
	c674.5,0,1349,0,2023.5,0C2023.628,372.348,2023.628,254.014,2023.628,135.681z"/>
</svg>
